<svg width="20" height="20" viewBox="0 0 24 24" fill="none" xmlns="http://www.w3.org/2000/svg">
  <path d="M22.162 5.656c-0.824 0.366-1.711 0.614-2.641 0.727 0.948-0.568 1.677-1.468 2.02-3.541a8.29 8.29 0 0 1-2.617 1 4.123 4.123 0 0 0-7.022 3.757A11.71 11.71 0 0 1 3.392 4.135 4.126 4.126 0 0 0 4.67 9.647a4.102 4.102 0 0 1-1.868-0.516v0.051a4.124 4.124 0 0 0 3.307 4.04 4.127 4.127 0 0 1-1.861 0.07 4.125 4.125 0 0 0 3.848 2.864 8.278 8.278 0 0 1-5.118 1.764c-0.332 0-0.659-0.02-0.982-0.058a11.666 11.666 0 0 0 6.318 1.851c7.58 0 11.72-6.28 11.72-11.72 0-0.178-0.004-0.355-0.012-0.531a8.374 8.374 0 0 0 2.057-2.132z" fill="black"/>
</svg>
